HIERARCHY
ROOT Hips
{
	OFFSET 0.000000 0.000000 0.000000 
	CHANNELS 6 Xposition Yposition Zposition Zrotation Yrotation Xrotation
	JOINT LeftUpLeg
	{
		OFFSET 1.363060 -1.794630 0.839290 
		CHANNELS 3 Zrotation Yrotation Xrotation
		JOINT LeftLeg
		{
			OFFSET 2.448110 -6.726130 0.000000 
			CHANNELS 3 Zrotation Yrotation Xrotation
			JOINT LeftFoot
			{
				OFFSET 2.562200 -7.039590 0.000000 
				CHANNELS 3 Zrotation Yrotation Xrotation
				JOINT LeftToeBase
				{
					OFFSET 0.157640 -0.433110 2.322550 
					CHANNELS 3 Zrotation Yrotation Xrotation
					End Site
					{
						OFFSET 0.000000 0.000000 0.000000 
					}
				}
			}
		}
	}
	JOINT RightUpLeg
	{
		OFFSET -1.305520 -1.794630 0.839290 
		CHANNELS 3 Zrotation Yrotation Xrotation
		JOINT RightLeg
		{
			OFFSET -2.542530 -6.985550 0.000000 
			CHANNELS 3 Zrotation Yrotation Xrotation
			JOINT RightFoot
			{
				OFFSET -2.568260 -7.056230 0.000000 
				CHANNELS 3 Zrotation Yrotation Xrotation
				JOINT RightToeBase
				{
					OFFSET -0.164730 -0.452590 2.363150 
					CHANNELS 3 Zrotation Yrotation Xrotation
					End Site
					{
						OFFSET 0.000000 0.000000 0.000000 
					}
				}
			}
		}
	}
	JOINT Spine
	{
		OFFSET 0.028270 2.035590 -0.193380 
		CHANNELS 3 Zrotation Yrotation Xrotation
		JOINT Spine1
		{
			OFFSET 0.056720 2.048850 -0.042750 
			CHANNELS 3 Zrotation Yrotation Xrotation
			JOINT Neck1
			{
				OFFSET -0.054170 1.746240 0.172020 
				CHANNELS 3 Zrotation Yrotation Xrotation
				JOINT Head
				{
					OFFSET 0.104070 1.761360 -0.123970 
					CHANNELS 3 Zrotation Yrotation Xrotation
					End Site
					{
						OFFSET 0.000000 0.000000 0.000000 
					}
				}
			}
			JOINT LeftArm
			{
				OFFSET 3.362410 1.200890 -0.311210 
				CHANNELS 3 Zrotation Yrotation Xrotation
				JOINT LeftForeArm
				{
					OFFSET 4.983000 -0.000000 -0.000000 
					CHANNELS 3 Zrotation Yrotation Xrotation
					JOINT LeftHand
					{
						OFFSET 3.483560 -0.000000 -0.000000 
						CHANNELS 3 Zrotation Yrotation Xrotation
						JOINT LeftHandIndex1
						{
							OFFSET 0.715260 -0.000000 -0.000000 
							CHANNELS 3 Zrotation Yrotation Xrotation
							End Site
							{
								OFFSET 0.000000 0.000000 0.000000 
							}
						}
					}
				}
			}
			JOINT RightArm
			{
				OFFSET -3.136600 1.374050 -0.404650 
				CHANNELS 3 Zrotation Yrotation Xrotation
				JOINT RightForeArm
				{
					OFFSET -5.241900 -0.000000 -0.000000 
					CHANNELS 3 Zrotation Yrotation Xrotation
					JOINT RightHand
					{
						OFFSET -3.444170 -0.000000 -0.000000 
						CHANNELS 3 Zrotation Yrotation Xrotation
						JOINT RightHandIndex1
						{
							OFFSET -0.622530 -0.000000 -0.000000 
							CHANNELS 3 Zrotation Yrotation Xrotation
							End Site
							{
								OFFSET 0.000000 0.000000 0.000000 
							}
						}
					}
				}
			}
		}
	}
}
MOTION
Frames: 10
Frame Time: 0.041667
-0.959961 16.737717 -4.552940 -4.176197 -22.063453 11.045621 -1.526444 -33.360692 -24.927509 0.191017 14.579453 32.018120 -5.100900 28.528120 -30.292706 1.858500 8.565000 24.443800 30.878581 7.823268 -6.285406 -0.195821 -11.190736 32.695445 0.580293 -12.578447 -26.451772 -0.005700 -0.486900 1.337800 1.322131 -2.000474 -5.172169 -2.942846 -0.861464 -1.023148 3.900190 -5.461990 12.613918 -2.731300 -2.069000 12.810900 -87.967360 16.554629 29.198595 136.984230 -42.371625 -101.005024 -0.669147 1.047171 16.070476 -7.125000 0.000000 0.000000 77.987536 -8.441653 36.754647 -133.880986 42.185700 -97.824318 0.685212 -0.934236 7.668411 7.125000 0.000000 0.000000 
-0.964322 16.737940 -4.555176 -4.174191 -22.105285 11.045499 -1.516259 -33.375927 -24.900601 0.189992 14.575724 32.018643 -5.081558 28.504812 -30.363759 1.864400 8.577600 24.482800 30.874885 7.798087 -6.305763 -0.197567 -11.194769 32.703370 0.572967 -12.534955 -26.422945 -0.005700 -0.485700 1.334500 1.319808 -2.007741 -5.169281 -2.951773 -0.868009 -0.998400 3.942847 -5.434009 12.678902 -2.671100 -2.056400 12.899700 -87.779728 16.194608 28.988286 137.209030 -42.221378 -101.227465 -0.641912 1.032905 15.653133 -7.125000 0.000000 0.000000 77.959894 -7.921603 36.368608 -134.048631 42.102425 -98.009213 0.678256 -0.932215 7.212256 7.125000 0.000000 0.000000 
-0.968570 16.737381 -4.557636 -4.205785 -22.136461 11.054294 -1.462770 -33.414924 -24.881634 0.191424 14.578734 32.033343 -5.038442 28.430385 -30.472853 1.888100 8.629100 24.641700 30.920210 7.791566 -6.303331 -0.194739 -11.194075 32.695623 0.576036 -12.532232 -26.398050 -0.005600 -0.483800 1.329400 1.322935 -2.024116 -5.172868 -2.921042 -0.879909 -1.004116 4.000400 -5.404450 12.784524 -2.584800 -2.045400 13.043500 -87.606456 15.847586 28.801428 137.455301 -42.051211 -101.468732 -0.621097 1.016278 15.125072 -7.125000 0.000000 0.000000 77.844086 -7.511023 36.039453 -134.281984 41.973086 -98.261211 0.662951 -0.931835 6.719022 7.125000 0.000000 0.000000 
-0.973266 16.736599 -4.559089 -4.252378 -22.184125 11.076573 -1.395502 -33.449216 -24.860113 0.193492 14.580202 32.043999 -5.008942 28.394909 -30.582896 1.903600 8.662200 24.744300 30.974197 7.794805 -6.310458 -0.191370 -11.196070 32.689431 0.565066 -12.491689 -26.391532 -0.005800 -0.490000 1.346600 1.320429 -2.027457 -5.177661 -2.967596 -0.890295 -0.920444 4.024399 -5.385676 13.056898 -2.568400 -2.008000 13.445800 -87.305308 15.414703 28.536385 137.655730 -41.893443 -101.691733 -0.621481 0.988303 14.454794 -7.125000 0.000000 0.000000 77.759948 -7.055154 35.673130 -134.540855 41.828660 -98.534692 0.649725 -0.928738 6.124093 7.125000 0.000000 0.000000 
-0.977738 16.736152 -4.560766 -4.277003 -22.222327 11.086492 -1.353269 -33.472732 -24.844112 0.195676 14.582919 32.058259 -4.980604 28.351731 -30.666927 1.916400 8.689800 24.829600 31.004673 7.781528 -6.316261 -0.188642 -11.195166 32.680991 0.560427 -12.464701 -26.371978 -0.005800 -0.490100 1.346600 1.319699 -2.038337 -5.182511 -2.984766 -0.902414 -0.874759 4.061073 -5.354982 13.282324 -2.524700 -1.975800 13.768700 -87.034714 14.993434 28.280772 137.862778 -41.733157 -101.914201 -0.617652 0.965347 13.814453 -7.125000 0.000000 0.000000 77.667115 -6.584762 35.307431 -134.776837 41.694671 -98.787011 0.638562 -0.927057 5.521024 7.125000 0.000000 0.000000 
-0.982099 16.735704 -4.562331 -4.298272 -22.258006 11.094140 -1.317592 -33.482508 -24.830391 0.197960 14.584728 32.070575 -4.957570 28.312196 -30.728116 1.926600 8.711500 24.897100 31.030548 7.763270 -6.323361 -0.186800 -11.194607 32.675070 0.555892 -12.437462 -26.352118 -0.005700 -0.486700 1.337400 1.318850 -2.050185 -5.189049 -3.004713 -0.915912 -0.831752 4.097215 -5.317451 13.546269 -2.482600 -1.936400 14.142800 -86.732427 14.545417 28.008519 138.057286 -41.574747 -102.130590 -0.618163 0.940012 13.121792 -7.125000 0.000000 0.000000 77.560714 -6.103995 34.935138 -135.016624 41.555150 -99.043926 0.627689 -0.924837 4.846157 7.125000 0.000000 0.000000 
-0.986459 16.735257 -4.563785 -4.312979 -22.292816 11.097063 -1.293067 -33.474154 -24.817173 0.199986 14.584345 32.079140 -4.940322 28.275866 -30.763471 1.933900 8.727100 24.945400 31.049399 7.743329 -6.330316 -0.186039 -11.194506 32.672573 0.550500 -12.409123 -26.335164 -0.005600 -0.484900 1.332400 1.317374 -2.060743 -5.196682 -3.030675 -0.929456 -0.793896 4.130138 -5.273681 13.841455 -2.446100 -1.889900 14.556400 -86.395070 14.075980 27.726073 138.247422 -41.413520 -102.347166 -0.620906 0.911864 12.392836 -7.125000 0.000000 0.000000 77.444831 -5.605003 34.553799 -135.254080 41.414356 -99.300006 0.616711 -0.921496 4.092720 7.125000 0.000000 0.000000 
-0.990820 16.734810 -4.565238 -4.321421 -22.325033 11.094344 -1.278855 -33.450401 -24.804197 0.201807 14.582623 32.085945 -4.926970 28.238173 -30.774784 1.939800 8.739500 24.983800 31.062431 7.720671 -6.334916 -0.186149 -11.194219 32.672245 0.545407 -12.382617 -26.320098 -0.005600 -0.484000 1.329800 1.316372 -2.074163 -5.204883 -3.055705 -0.944582 -0.767064 4.164261 -5.214000 14.155191 -2.408300 -1.834300 14.988300 -86.026195 13.577041 27.433100 138.427575 -41.254580 -102.557936 -0.619833 0.880306 11.644451 -7.125000 0.000000 0.000000 77.308018 -5.079986 34.170238 -135.488432 41.272645 -99.555403 0.604819 -0.916629 3.261560 7.125000 0.000000 0.000000 
-0.995180 16.734474 -4.566692 -4.328174 -22.356725 11.086158 -1.272651 -33.405774 -24.789684 0.203982 14.578923 32.091565 -4.915943 28.193603 -30.761133 1.944800 8.750200 25.017000 31.075099 7.697602 -6.334504 -0.186795 -11.193720 32.673346 0.539801 -12.356020 -26.306897 -0.005600 -0.484700 1.331800 1.316217 -2.090500 -5.213487 -3.081335 -0.961277 -0.755354 4.198977 -5.131778 14.479276 -2.370500 -1.767400 15.424200 -85.623144 13.050678 27.131044 138.598677 -41.097523 -102.763949 -0.611333 0.843651 10.894363 -7.125000 0.000000 0.000000 77.147616 -4.529895 33.794264 -135.721459 41.128810 -99.812307 0.589957 -0.909707 2.369884 7.125000 0.000000 0.000000 
-0.999540 16.734027 -4.568369 -4.334066 -22.385646 11.072677 -1.274322 -33.333677 -24.775982 0.207171 14.573955 32.097303 -4.912222 28.148653 -30.708102 1.946800 8.754400 25.029900 31.089638 7.675249 -6.328159 -0.187566 -11.192685 32.674458 0.534583 -12.332457 -26.296670 -0.005700 -0.487300 1.339000 1.317141 -2.111434 -5.221598 -3.110735 -0.980273 -0.753970 4.232389 -5.022173 14.806465 -2.336400 -1.687000 15.853800 -85.183733 12.495216 26.815822 138.763997 -40.941139 -102.967087 -0.594222 0.803570 10.151090 -7.125000 0.000000 0.000000 76.962922 -3.942592 33.436390 -135.947918 40.986827 -100.066316 0.570705 -0.900401 1.449884 7.125000 0.000000 0.000000 
